<svg width="400" height="400" viewBox="0 0 400 400" fill="none" xmlns="http://www.w3.org/2000/svg">
  <rect width="400" height="400" fill="#E5E7EB"/>
  <path d="M159.151 175.752C159.151 185.822 151.004 193.969 140.934 193.969C130.864 193.969 122.717 185.822 122.717 175.752C122.717 165.682 130.864 157.535 140.934 157.535C151.004 157.535 159.151 165.682 159.151 175.752Z" fill="#9CA3AF"/>
  <path fill-rule="evenodd" clip-rule="evenodd" d="M112.231 242.4C112.231 208.61 139.243 181.598 173.033 181.598H226.967C260.757 181.598 287.769 208.61 287.769 242.4V242.4C287.769 242.4 287.769 242.4 287.769 242.4H112.231C112.231 242.4 112.231 242.4 112.231 242.4V242.4Z" fill="#9CA3AF"/>
  <path d="M200 140C226.51 140 248 161.49 248 188C248 214.51 226.51 236 200 236C173.49 236 152 214.51 152 188C152 161.49 173.49 140 200 140Z" fill="#9CA3AF"/>
  <path fill-rule="evenodd" clip-rule="evenodd" d="M200 260C144.772 260 100 215.228 100 160C100 104.772 144.772 60 200 60C255.228 60 300 104.772 300 160C300 215.228 255.228 260 200 260ZM200 250C249.706 250 290 209.706 290 160C290 110.294 249.706 70 200 70C150.294 70 110 110.294 110 160C110 209.706 150.294 250 200 250Z" fill="#9CA3AF"/>
</svg>

